<svg xmlns="http://www.w3.org/2000/svg" xmlns:xlink="http://www.w3.org/1999/xlink" width="148.386" height="61.82" viewBox="0 0 148.386 61.82">
  <defs>
    <filter id="Union" x="0" y="0" width="148.386" height="61.82" filterUnits="userSpaceOnUse">
      <feOffset dy="1.852" input="SourceAlpha"/>
      <feGaussianBlur stdDeviation="3.148" result="blur"/>
      <feFlood flood-color="#383838" flood-opacity="0.024"/>
      <feComposite operator="in" in2="blur"/>
      <feComposite in="SourceGraphic"/>
    </filter>
  </defs>
  <g id="Apple_download_button" data-name="Apple download button" transform="translate(9.444 7.593)">
    <g transform="matrix(1, 0, 0, 1, -9.44, -7.59)" filter="url(#Union)">
      <path id="Union-2" data-name="Union" d="M9.133,0c.4,0,.788,0,1.185,0H119.184c.389,0,.784,0,1.173,0,.269,0,.544.006.815.011l.182,0a14.23,14.23,0,0,1,2.164.19,7.366,7.366,0,0,1,2.065.673,6.969,6.969,0,0,1,3.029,3.005,7.062,7.062,0,0,1,.67,2.043,14.381,14.381,0,0,1,.2,2.149c0,.329,0,.659,0,.988.009.389.009.779.009,1.172V32.7c0,.4,0,.784-.009,1.174,0,.333,0,.656,0,.989a14.379,14.379,0,0,1-.2,2.149,7.047,7.047,0,0,1-.67,2.044,6.867,6.867,0,0,1-1.279,1.733,6.791,6.791,0,0,1-1.75,1.265,7.406,7.406,0,0,1-2.065.677,14.486,14.486,0,0,1-2.164.19c-.33.007-.668.011-1,.011-.389,0-.784,0-1.173,0H10.318c-.4,0-.789,0-1.185,0-.331,0-.66,0-.995-.011a14.679,14.679,0,0,1-2.169-.19,7.293,7.293,0,0,1-2.057-.677,6.788,6.788,0,0,1-1.752-1.265A6.666,6.666,0,0,1,.887,39.053,7.03,7.03,0,0,1,.21,37.009a13.833,13.833,0,0,1-.194-2.148C.01,34.633.007,34.41,0,34.185c0-.1,0-.208,0-.314V9.063q0-.158,0-.316c0-.224.005-.448.012-.672A13.834,13.834,0,0,1,.21,5.926,7.044,7.044,0,0,1,.887,3.883a6.72,6.72,0,0,1,1.275-1.74A6.965,6.965,0,0,1,3.913.878,7.254,7.254,0,0,1,5.97.205,14.416,14.416,0,0,1,8.139.016l.2,0C8.608.008,8.87,0,9.133,0Z" transform="translate(9.44 7.59)" fill="#c4c4c4"/>
    </g>
    <path id="Vector" d="M8.194,41.053c-.33,0-.651,0-.979-.011a13.841,13.841,0,0,1-2.023-.175A6.4,6.4,0,0,1,3.4,40.278a5.848,5.848,0,0,1-1.512-1.091,5.713,5.713,0,0,1-1.1-1.5A6.106,6.106,0,0,1,.2,35.91,13.217,13.217,0,0,1,.016,33.9c-.007-.226-.016-.98-.016-.98V8.124s.01-.742.016-.96A13.171,13.171,0,0,1,.2,5.155,6.142,6.142,0,0,1,.783,3.371a5.769,5.769,0,0,1,1.1-1.5A6.021,6.021,0,0,1,3.4.773,6.338,6.338,0,0,1,5.188.189,13.73,13.73,0,0,1,7.218.013L8.195,0H119.408l.988.014a13.511,13.511,0,0,1,2.011.175,6.464,6.464,0,0,1,1.808.588,6.029,6.029,0,0,1,2.613,2.6,6.149,6.149,0,0,1,.579,1.77,13.836,13.836,0,0,1,.188,2.025c0,.3,0,.63,0,.955.009.4.009.786.009,1.172V31.758c0,.39,0,.77-.009,1.154,0,.349,0,.669,0,1a13.557,13.557,0,0,1-.185,1.989,6.124,6.124,0,0,1-.584,1.792,6.075,6.075,0,0,1-2.613,2.585,6.38,6.38,0,0,1-1.805.59,13.682,13.682,0,0,1-2.023.175q-.486.011-.971.011l-1.173,0Z" transform="translate(0.945 0.939)" fill="#fff"/>
    <path id="Vector-2" data-name="Vector" d="M16.013,12.733a5.278,5.278,0,0,1,.7-2.553,5.331,5.331,0,0,1,1.853-1.9,5.494,5.494,0,0,0-4.319-2.316C12.427,5.772,10.665,7.04,9.739,7.04c-.944,0-2.37-1.06-3.9-1.028a5.787,5.787,0,0,0-2.809.831,5.726,5.726,0,0,0-2.031,2.1C-1.1,12.533.462,17.814,2.467,20.719c1,1.423,2.175,3.011,3.709,2.955,1.5-.062,2.062-.949,3.874-.949,1.8,0,2.321.949,3.886.913,1.611-.026,2.625-1.429,3.593-2.865a11.726,11.726,0,0,0,1.643-3.319,5.165,5.165,0,0,1-2.3-1.889A5.1,5.1,0,0,1,16.013,12.733ZM13.057,4.051A5.2,5.2,0,0,0,14.263.3a5.38,5.38,0,0,0-3.471,1.781A4.95,4.95,0,0,0,9.554,5.693,4.467,4.467,0,0,0,11.5,5.271a4.43,4.43,0,0,0,1.561-1.221Zm21.93,16.023H29.865l-1.23,3.6h-2.17l4.852-13.328h2.254l4.852,13.328H36.216ZM30.4,18.411h4.06l-2-5.846H32.4Zm18.506.407c0,3.02-1.63,4.96-4.089,4.96a3.344,3.344,0,0,1-1.788-.411,3.308,3.308,0,0,1-1.3-1.289h-.047V26.89H39.672V13.958h1.947v1.616h.037a3.462,3.462,0,0,1,1.321-1.286,3.5,3.5,0,0,1,1.8-.432c2.487,0,4.126,1.95,4.126,4.961Zm-2.067,0c0-1.967-1.025-3.261-2.589-3.261-1.537,0-2.57,1.321-2.57,3.261,0,1.958,1.033,3.269,2.57,3.269,1.564,0,2.589-1.284,2.589-3.269Zm12.851,0c0,3.02-1.63,4.96-4.089,4.96a3.344,3.344,0,0,1-1.788-.411,3.308,3.308,0,0,1-1.295-1.289h-.047V26.89H50.456V13.958H52.4v1.616h.037a3.462,3.462,0,0,1,1.321-1.286,3.5,3.5,0,0,1,1.8-.432c2.487,0,4.126,1.95,4.126,4.961Zm-2.067,0c0-1.967-1.025-3.261-2.589-3.261-1.537,0-2.57,1.321-2.57,3.261,0,1.958,1.033,3.269,2.57,3.269,1.564,0,2.589-1.284,2.589-3.269Zm9.194,1.145c.149,1.322,1.444,2.189,3.213,2.189,1.7,0,2.915-.868,2.915-2.06,0-1.035-.736-1.654-2.477-2.078L68.721,17.6c-2.468-.591-3.613-1.736-3.613-3.593,0-2.3,2.021-3.879,4.89-3.879,2.84,0,4.786,1.579,4.852,3.879h-2.03c-.122-1.33-1.23-2.133-2.85-2.133s-2.729.812-2.729,1.995c0,.942.708,1.5,2.44,1.921l1.481.361c2.757.647,3.9,1.745,3.9,3.695,0,2.494-2,4.055-5.188,4.055-2.98,0-4.992-1.525-5.122-3.936Zm12.592-8.3v2.3h1.863v1.58H79.4v5.357c0,.832.373,1.22,1.192,1.22a6.336,6.336,0,0,0,.662-.046v1.57a5.567,5.567,0,0,1-1.117.092c-1.984,0-2.757-.739-2.757-2.623v-5.57H75.959v-1.58h1.425v-2.3Zm2.942,7.159c0-3.057,1.816-4.979,4.647-4.979s4.648,1.921,4.648,4.979-1.8,4.978-4.648,4.978S82.346,21.883,82.346,18.818Zm7.245,0c0-2.1-.969-3.335-2.6-3.335s-2.6,1.247-2.6,3.335c0,2.106.968,3.334,2.6,3.334S89.591,20.923,89.591,18.818ZM93.3,13.958h1.918v1.654h.047a2.317,2.317,0,0,1,.864-1.293,2.35,2.35,0,0,1,1.493-.463,3.126,3.126,0,0,1,.689.074V15.8a2.833,2.833,0,0,0-.9-.121,2.035,2.035,0,0,0-1.566.64,2,2,0,0,0-.529,1.6v5.764H93.3Zm14.283,6.863c-.271,1.764-2,2.975-4.219,2.975-2.85,0-4.619-1.894-4.619-4.932s1.779-5.025,4.535-5.025c2.711,0,4.415,1.847,4.415,4.793v.683h-6.92v.121a2.518,2.518,0,0,0,.691,1.966,2.563,2.563,0,0,0,1.944.786,2.231,2.231,0,0,0,1.36-.311,2.2,2.2,0,0,0,.9-1.056Zm-6.8-2.9h4.9a2.326,2.326,0,0,0-.658-1.754,2.366,2.366,0,0,0-1.745-.712,2.491,2.491,0,0,0-1.766.718,2.45,2.45,0,0,0-.729,1.749ZM30.143.316a2.869,2.869,0,0,1,2.279.878,2.818,2.818,0,0,1,.76,2.3c0,2.046-1.115,3.222-3.038,3.222H27.811V.316Zm-1.329,5.5h1.217a2.039,2.039,0,0,0,1.617-.649,2,2,0,0,0,.512-1.654,2.008,2.008,0,0,0-.52-1.643,2.044,2.044,0,0,0-1.609-.647H28.814Zm5.5-1.513a2.278,2.278,0,0,1,.59-1.758,2.313,2.313,0,0,1,3.9.817,2.272,2.272,0,0,1,.108.941,2.278,2.278,0,0,1-.588,1.761,2.313,2.313,0,0,1-3.9-.819A2.272,2.272,0,0,1,34.315,4.3Zm3.607,0c0-1.048-.475-1.66-1.307-1.66s-1.306.613-1.306,1.66.47,1.664,1.306,1.664,1.307-.612,1.307-1.664Zm7.1,2.419h-1L43.015,3.16h-.076l-1,3.559h-.988L39.605,1.887h.975l.873,3.688h.072l1-3.688h.923l1,3.688h.076L45.4,1.887h.962Zm2.468-4.833h.926v.768h.072a1.451,1.451,0,0,1,.588-.661,1.468,1.468,0,0,1,.866-.2,1.592,1.592,0,0,1,1.279.5,1.564,1.564,0,0,1,.408,1.3V6.72h-.962V3.831c0-.777-.34-1.163-1.052-1.163a1.123,1.123,0,0,0-.866.347,1.1,1.1,0,0,0-.3.878V6.72h-.962ZM53.159,0h.962V6.72h-.962Zm2.3,4.3a2.278,2.278,0,0,1,.59-1.758,2.313,2.313,0,0,1,3.9.817,2.272,2.272,0,0,1,.108.941,2.278,2.278,0,0,1-.588,1.761,2.313,2.313,0,0,1-3.9-.819,2.272,2.272,0,0,1-.106-.942Zm3.607,0c0-1.048-.475-1.66-1.307-1.66s-1.306.613-1.306,1.66.47,1.664,1.306,1.664S59.064,5.353,59.064,4.3Zm2,1.052c0-.87.653-1.372,1.812-1.443l1.32-.075V3.418c0-.51-.34-.8-1-.8-.537,0-.909.2-1.016.537h-.931c.1-.83.886-1.363,1.991-1.363,1.222,0,1.911.6,1.911,1.624v3.3H64.23V6.04h-.076A1.643,1.643,0,0,1,62.69,6.8a1.48,1.48,0,0,1-1.136-.366,1.455,1.455,0,0,1-.489-1.081ZM64.2,4.94v-.4l-1.19.075c-.671.045-.975.271-.975.7s.38.688.9.688a1.155,1.155,0,0,0,.857-.263A1.136,1.136,0,0,0,64.2,4.94ZM66.42,4.3c0-1.527.792-2.495,2.023-2.495a1.617,1.617,0,0,1,.871.209,1.6,1.6,0,0,1,.623.639h.072V0h.962V6.72h-.921V5.956h-.076a1.685,1.685,0,0,1-.647.633,1.7,1.7,0,0,1-.884.21c-1.24,0-2.023-.967-2.023-2.5Zm.993,0c0,1.025.487,1.642,1.3,1.642s1.312-.626,1.312-1.638-.506-1.642-1.312-1.642S67.413,3.284,67.413,4.3Zm7.536,0a2.278,2.278,0,0,1,.59-1.758,2.313,2.313,0,0,1,3.9.817,2.272,2.272,0,0,1,.108.941,2.278,2.278,0,0,1-.588,1.761,2.313,2.313,0,0,1-3.9-.819,2.272,2.272,0,0,1-.106-.942Zm3.607,0c0-1.048-.475-1.66-1.307-1.66s-1.306.613-1.306,1.66.47,1.664,1.306,1.664S78.556,5.353,78.556,4.3Zm2.279-2.414h.926v.768h.072a1.451,1.451,0,0,1,.588-.661,1.468,1.468,0,0,1,.866-.2,1.592,1.592,0,0,1,1.279.5,1.563,1.563,0,0,1,.408,1.3V6.72h-.962V3.831c0-.777-.34-1.163-1.052-1.163a1.123,1.123,0,0,0-.866.347,1.1,1.1,0,0,0-.3.878V6.72h-.962Zm9.573-1.2V1.909h1.056v.8H90.408V5.2c0,.506.21.728.689.728a3.236,3.236,0,0,0,.367-.022V6.7a3.18,3.18,0,0,1-.523.049c-1.069,0-1.5-.373-1.5-1.3V2.712h-.774v-.8h.774V.684ZM92.778,0h.953V2.663h.076a1.492,1.492,0,0,1,.6-.666,1.509,1.509,0,0,1,.881-.2,1.612,1.612,0,0,1,1.266.509A1.584,1.584,0,0,1,96.971,3.6V6.72h-.963V3.835c0-.772-.363-1.163-1.042-1.163a1.144,1.144,0,0,0-.9.33,1.124,1.124,0,0,0-.326.9V6.72h-.962Zm9.8,5.415a1.963,1.963,0,0,1-.8,1.079,1.991,1.991,0,0,1-1.312.319,2.222,2.222,0,0,1-1.708-.73,2.183,2.183,0,0,1-.543-1.764,2.217,2.217,0,0,1,.542-1.771,2.256,2.256,0,0,1,1.7-.754,2.133,2.133,0,0,1,2.174,2.436v.333H99.2v.053a1.271,1.271,0,0,0,.34.977,1.293,1.293,0,0,0,.958.408,1.176,1.176,0,0,0,.67-.118,1.164,1.164,0,0,0,.49-.468ZM99.2,3.857h2.461a1.16,1.16,0,0,0-.32-.889,1.181,1.181,0,0,0-.879-.363,1.252,1.252,0,0,0-.9.362,1.231,1.231,0,0,0-.365.89Z" transform="translate(10.791 9.055)"/>
  </g>
</svg>
