<svg id="Group_260" data-name="Group 260" xmlns="http://www.w3.org/2000/svg" width="30.533" height="30.479" viewBox="0 0 30.533 30.479">
  <path id="Vector" d="M7.339,3.67A3.67,3.67,0,1,1,3.67,0,3.67,3.67,0,0,1,7.339,3.67Z" fill="#fafafa"/>
  <path id="Vector-2" data-name="Vector" d="M10.3.5V20.862h6.321V10.794c0-2.657.5-5.229,3.794-5.229,3.249,0,3.289,3.037,3.289,5.4v9.9H30.03V9.7c0-5.484-1.181-9.7-7.591-9.7a6.647,6.647,0,0,0-5.984,3.287h-.086V.5ZM0,.5H6.331V20.862H0Z" transform="translate(0.504 9.616)" fill="#fafafa"/>
</svg>
