<svg xmlns="http://www.w3.org/2000/svg" xmlns:xlink="http://www.w3.org/1999/xlink" width="148.386" height="61.82" viewBox="0 0 148.386 61.82">
  <defs>
    <filter id="Vector" x="0" y="0" width="148.386" height="61.82" filterUnits="userSpaceOnUse">
      <feOffset dy="1.852" input="SourceAlpha"/>
      <feGaussianBlur stdDeviation="3.148" result="blur"/>
      <feFlood flood-color="#383838" flood-opacity="0.024"/>
      <feComposite operator="in" in2="blur"/>
      <feComposite in="SourceGraphic"/>
    </filter>
    <filter id="Vector-2" x="0" y="0" width="148.386" height="61.82" filterUnits="userSpaceOnUse">
      <feOffset dy="1.852" input="SourceAlpha"/>
      <feGaussianBlur stdDeviation="3.148" result="blur-2"/>
      <feFlood flood-color="#383838" flood-opacity="0.024"/>
      <feComposite operator="in" in2="blur-2"/>
      <feComposite in="SourceGraphic"/>
    </filter>
    <linearGradient id="linear-gradient" x1="0.613" y1="0.044" x2="0.26" y2="0.722" gradientUnits="objectBoundingBox">
      <stop offset="0" stop-color="#00a0ff"/>
      <stop offset="0.007" stop-color="#00a1ff"/>
      <stop offset="0.26" stop-color="#00beff"/>
      <stop offset="0.512" stop-color="#00d2ff"/>
      <stop offset="0.76" stop-color="#00dfff"/>
      <stop offset="1" stop-color="#00e3ff"/>
    </linearGradient>
    <linearGradient id="linear-gradient-2" x1="1.076" y1="0.491" x2="0" y2="0.491" gradientUnits="objectBoundingBox">
      <stop offset="0" stop-color="#ffe000"/>
      <stop offset="0.409" stop-color="#ffbd00"/>
      <stop offset="0.775" stop-color="orange"/>
      <stop offset="1" stop-color="#ff9c00"/>
    </linearGradient>
    <linearGradient id="linear-gradient-3" x1="0.867" y1="0.309" x2="0" y2="1" gradientUnits="objectBoundingBox">
      <stop offset="0" stop-color="#ff3a44"/>
      <stop offset="1" stop-color="#c31162"/>
    </linearGradient>
    <linearGradient id="linear-gradient-4" y1="-0.119" x2="0.418" y2="0.351" gradientUnits="objectBoundingBox">
      <stop offset="0" stop-color="#32a071"/>
      <stop offset="0.068" stop-color="#2da771"/>
      <stop offset="0.476" stop-color="#15cf74"/>
      <stop offset="0.801" stop-color="#06e775"/>
      <stop offset="1" stop-color="#00f076"/>
    </linearGradient>
    <linearGradient id="linear-gradient-5" x1="0.862" y1="0.305" x2="0" y2="1" gradientUnits="objectBoundingBox">
      <stop offset="0" stop-color="#cc2e36"/>
      <stop offset="1" stop-color="#9c0e4e"/>
    </linearGradient>
    <linearGradient id="linear-gradient-6" x1="3.073" y1="-14.318" x2="0" y2="-3.496" gradientUnits="objectBoundingBox">
      <stop offset="0" stop-color="#008de0"/>
      <stop offset="0.007" stop-color="#008de0"/>
      <stop offset="0.26" stop-color="#00a7e0"/>
      <stop offset="0.512" stop-color="#00b8e0"/>
      <stop offset="0.76" stop-color="#00c4e0"/>
      <stop offset="1" stop-color="#00c7e0"/>
    </linearGradient>
    <linearGradient id="linear-gradient-7" x1="1.128" x2="0" gradientUnits="objectBoundingBox">
      <stop offset="0" stop-color="#e0c500"/>
      <stop offset="0.409" stop-color="#e0a600"/>
      <stop offset="0.775" stop-color="#e09100"/>
      <stop offset="1" stop-color="#e08900"/>
    </linearGradient>
    <linearGradient id="linear-gradient-8" x1="1.128" y1="1" x2="0" y2="1" gradientUnits="objectBoundingBox">
      <stop offset="0" stop-color="#ffe840"/>
      <stop offset="0.409" stop-color="#ffce40"/>
      <stop offset="0.775" stop-color="#ffbc40"/>
      <stop offset="1" stop-color="#ffb540"/>
    </linearGradient>
    <linearGradient id="linear-gradient-9" x1="3.061" y1="0.766" x2="0" y2="1" gradientUnits="objectBoundingBox">
      <stop offset="0" stop-color="#40b8ff"/>
      <stop offset="0.007" stop-color="#40b9ff"/>
      <stop offset="0.26" stop-color="#40ceff"/>
      <stop offset="0.512" stop-color="#40ddff"/>
      <stop offset="0.76" stop-color="#40e7ff"/>
      <stop offset="1" stop-color="#40eaff"/>
    </linearGradient>
    <linearGradient id="linear-gradient-10" y1="0.144" x2="0.421" y2="0.463" gradientUnits="objectBoundingBox">
      <stop offset="0" stop-color="#65b895"/>
      <stop offset="0.068" stop-color="#62bd95"/>
      <stop offset="0.476" stop-color="#50db97"/>
      <stop offset="0.801" stop-color="#44ed98"/>
      <stop offset="1" stop-color="#40f498"/>
    </linearGradient>
  </defs>
  <g id="Google_download_button" data-name="Google download button" transform="translate(9.444 7.593)">
    <g transform="matrix(1, 0, 0, 1, -9.44, -7.59)" filter="url(#Vector)">
      <path id="Vector-3" data-name="Vector" d="M124.7,0H4.8A5.121,5.121,0,0,0,0,5.366v32.2a5.12,5.12,0,0,0,4.8,5.366H124.7a5.12,5.12,0,0,0,4.8-5.366V5.366A5.12,5.12,0,0,0,124.7,0Z" transform="translate(9.44 7.59)"/>
    </g>
    <g transform="matrix(1, 0, 0, 1, -9.44, -7.59)" filter="url(#Vector-2)">
      <path id="Vector-4" data-name="Vector" d="M4.8,0H124.7a5.12,5.12,0,0,1,4.8,5.366v32.2a5.12,5.12,0,0,1-4.8,5.366H4.8A5.12,5.12,0,0,1,0,37.565V5.366A5.121,5.121,0,0,1,4.8,0Z" transform="translate(9.44 7.59)" fill="#c4c4c4"/>
    </g>
    <path id="Vector-5" data-name="Vector" d="M123.49,41.662H4.7A4.988,4.988,0,0,1,0,36.454V5.208A4.988,4.988,0,0,1,4.7,0H123.49a4.988,4.988,0,0,1,4.7,5.208V36.454A4.988,4.988,0,0,1,123.49,41.662Z" transform="translate(0.666 0.641)" fill="#fff"/>
    <path id="Vector-6" data-name="Vector" d="M5.819,3.625A3.108,3.108,0,0,1,5.1,5.775a2.648,2.648,0,0,1-2.114.953A2.746,2.746,0,0,1,.872,5.761,3.444,3.444,0,0,1,0,3.364,3.445,3.445,0,0,1,.872.967,2.748,2.748,0,0,1,2.99,0,2.7,2.7,0,0,1,4.172.27a2.4,2.4,0,0,1,.9.719l-.506.566A1.858,1.858,0,0,0,2.99.792a2.074,2.074,0,0,0-1.572.715A2.623,2.623,0,0,0,.755,3.364a2.623,2.623,0,0,0,.663,1.857,2.074,2.074,0,0,0,1.572.715A2.067,2.067,0,0,0,4.6,5.217a2.153,2.153,0,0,0,.483-1.3H2.99V3.139H5.779a3.066,3.066,0,0,1,.04.486" transform="translate(39.666 7.369)"/>
    <path id="Vector-7" data-name="Vector" d="M5.915,3.733h-.1a2.993,2.993,0,0,1-.687,2.074h0a2.556,2.556,0,0,1-2.045.92,2.656,2.656,0,0,1-2.05-.935A3.332,3.332,0,0,1,.192,3.471a3.329,3.329,0,0,1,.844-2.321A2.655,2.655,0,0,1,3.086.215,2.614,2.614,0,0,1,4.229.476a2.308,2.308,0,0,1,.864.69L5.167,1.1,5.1,1.021l-.506.567.068.075.074-.069a1.953,1.953,0,0,0-1.649-.8,2.165,2.165,0,0,0-1.638.745A2.738,2.738,0,0,0,.755,3.471a2.739,2.739,0,0,0,.693,1.934,2.165,2.165,0,0,0,1.638.745A2.158,2.158,0,0,0,4.761,5.4a2.269,2.269,0,0,0,.51-1.371l.009-.117h-2.1V3.354H5.875V3.247l-.094.019a2.922,2.922,0,0,1,.039.467h.192a3.165,3.165,0,0,0-.042-.505l-.014-.088H2.99v.988H5.176V4.02l-.1-.009a2.043,2.043,0,0,1-.455,1.238,1.976,1.976,0,0,1-1.54.688,1.981,1.981,0,0,1-1.505-.685,2.508,2.508,0,0,1-.634-1.78,2.508,2.508,0,0,1,.634-1.78,1.981,1.981,0,0,1,1.505-.685,1.766,1.766,0,0,1,1.5.726l.067.09.58-.649L5.3,1.1l-.057-.075A2.494,2.494,0,0,0,4.305.279,2.786,2.786,0,0,0,3.086,0,2.84,2.84,0,0,0,.9,1,3.561,3.561,0,0,0,0,3.471,3.562,3.562,0,0,0,.9,5.945a2.839,2.839,0,0,0,2.185,1A2.742,2.742,0,0,0,5.27,5.956L5.2,5.882l.068.076a3.224,3.224,0,0,0,.743-2.225h-.1Zm4.421-2.69H7.715V3.085h2.364v.774H7.715V5.9h2.621v.791H6.976V.252h3.36Z" transform="translate(39.57 7.261)"/>
    <path id="Vector-8" data-name="Vector" d="M3.456.9V.791H.739V3.048H3.1v.559H.739V5.863H3.36V6.44H.192V.215H3.36V.9h.1v0h.1V0H0V6.654H3.552V5.649H.931V3.821H3.294V2.833H.931V1.006H3.552V.9ZM6.574,6.547h-.74V.9H4.227V.107H8.182V.9H6.574V6.547" transform="translate(46.451 7.406)"/>
    <path id="Vector-9" data-name="Vector" d="M2.443,6.547V6.44H1.8V.791H.192V.215H3.955V.791H2.348V6.547h.1v0h.1V1.006H4.147V0H0V1.006H1.607V6.654h.932V6.547h-.1Zm4.469,0V.107h.739v6.44H6.913" transform="translate(50.582 7.406)"/>
    <path id="Vector-10" data-name="Vector" d="M.1,6.547h.1V.215H.739V6.44H.1v.107h0v.107H.931V0H0V6.654H.1V6.547Zm4.02,0h-.74V.9H1.768V.107H5.723V.9H4.116V6.547" transform="translate(57.399 7.406)"/>
    <path id="Vector-11" data-name="Vector" d="M2.443,6.584V6.477H1.8V.828H.192V.252H3.955V.828H2.347V6.584h.1v0h.1V1.043H4.147V.037H0V1.043H1.607V6.691h.932V6.584h-.1Zm5.42-1.371a2.051,2.051,0,0,0,3.127,0,2.69,2.69,0,0,0,.64-1.849,2.69,2.69,0,0,0-.64-1.848,2.051,2.051,0,0,0-3.127,0,2.694,2.694,0,0,0-.639,1.848A2.694,2.694,0,0,0,7.864,5.213Zm3.674.539a2.769,2.769,0,0,1-4.22,0A3.508,3.508,0,0,1,6.47,3.364,3.508,3.508,0,0,1,7.318.976a2.76,2.76,0,0,1,4.216,0,3.509,3.509,0,0,1,.852,2.383A3.516,3.516,0,0,1,11.538,5.752Z" transform="translate(59.071 7.369)"/>
    <path id="Vector-12" data-name="Vector" d="M1.49,5.32,1.422,5.4a2.1,2.1,0,0,0,1.632.755A2.1,2.1,0,0,0,4.685,5.4a2.807,2.807,0,0,0,.668-1.924,2.807,2.807,0,0,0-.668-1.924A2.1,2.1,0,0,0,3.053.792a2.1,2.1,0,0,0-1.632.755A2.809,2.809,0,0,0,.755,3.471,2.809,2.809,0,0,0,1.422,5.4L1.49,5.32l.068-.075A2.578,2.578,0,0,1,.947,3.471,2.578,2.578,0,0,1,1.558,1.7a1.916,1.916,0,0,1,1.5-.692,1.914,1.914,0,0,1,1.5.692A2.575,2.575,0,0,1,5.16,3.471a2.575,2.575,0,0,1-.612,1.773,1.914,1.914,0,0,1-1.5.692,1.916,1.916,0,0,1-1.5-.692Zm3.674.539L5.1,5.784a2.593,2.593,0,0,1-2.042.943,2.59,2.59,0,0,1-2.041-.943l0,0,0,0A3.4,3.4,0,0,1,.192,3.471a3.4,3.4,0,0,1,.821-2.313A2.59,2.59,0,0,1,3.053.215a2.592,2.592,0,0,1,2.038.948,3.4,3.4,0,0,1,.824,2.308A3.4,3.4,0,0,1,5.1,5.784l.069.075.069.075a3.632,3.632,0,0,0,.875-2.462,3.626,3.626,0,0,0-.879-2.458A2.774,2.774,0,0,0,3.053,0,2.773,2.773,0,0,0,.875,1.009h0A3.628,3.628,0,0,0,0,3.471,3.628,3.628,0,0,0,.875,5.934l0,0,0,0A2.773,2.773,0,0,0,3.053,6.942,2.777,2.777,0,0,0,5.233,5.934l-.069-.075Zm1.886.832V.252h.9l2.8,5.01h.032L10.747,4.02V.252h.74v6.44h-.772L7.789,1.439H7.757L7.789,2.68V6.691H7.05" transform="translate(65.445 7.261)"/>
    <path id="Vector-13" data-name="Vector" d="M33.126,6.547h.1V.215h.751l2.8,5.01h.184l-.034-1.35V.215h.548V6.44h-.623L33.918,1.187h-.184l.034,1.351v3.9h-.643v.107h0v.107h.835V2.534l-.032-1.243-.1,0V1.4h.032V1.295l-.081.057,2.955,5.3h.921V0h-.932V3.877l.032,1.243.1,0V5.01h-.032v.107L36.9,5.06,34.079,0H33.03V6.654h.1V6.547ZM63.208,24.793H65V11.375h-1.79ZM79.33,16.209l-2.052,5.817h-.061l-2.13-5.817H73.159l3.193,8.13-1.821,4.522H76.4l4.921-12.653Zm-10.151,7.06c-.587,0-1.4-.328-1.4-1.14,0-1.036,1.019-1.433,1.9-1.433a2.924,2.924,0,0,1,1.636.449,2.271,2.271,0,0,1-2.129,2.123Zm.216-7.354A3.317,3.317,0,0,0,66.2,17.969l1.588.742a1.661,1.661,0,0,1,1.636-.984,1.789,1.789,0,0,1,1.882,1.726v.138a3.636,3.636,0,0,0-1.867-.518,3.181,3.181,0,0,0-3.456,3.021,2.905,2.905,0,0,0,2.977,2.952,2.471,2.471,0,0,0,2.284-1.312h.061v1.036h1.728V19.626a3.46,3.46,0,0,0-3.64-3.711ZM58.333,17.842H55.788v-4.6h2.546a2.215,2.215,0,0,1,2.1,2.3A2.227,2.227,0,0,1,58.333,17.842Zm-.046-6.466H54V24.793h1.789V19.709h2.5a4.011,4.011,0,0,0,3.934-4.167,4.011,4.011,0,0,0-3.934-4.167ZM34.9,23.271a2.512,2.512,0,0,1-2.272-2.749A2.535,2.535,0,0,1,34.9,17.738c1.221,0,2.179,1.176,2.179,2.784,0,1.591-.958,2.749-2.179,2.749Zm2.055-6.311h-.062a2.7,2.7,0,0,0-2.148-1.02c-2.04,0-3.91,2.006-3.91,4.582,0,2.559,1.87,4.548,3.91,4.548a2.664,2.664,0,0,0,2.148-1.037h.062v.657c0,1.747-.834,2.68-2.179,2.68a2.3,2.3,0,0,1-2.056-1.625l-1.561.726a3.932,3.932,0,0,0,3.616,2.7c2.1,0,3.879-1.384,3.879-4.755v-8.2h-1.7Zm2.936,7.833h1.793V11.375H39.892Zm4.435-4.426A2.4,2.4,0,0,1,46.459,17.7a1.563,1.563,0,0,1,1.514.969Zm5.563-1.521c-.34-1.02-1.376-2.9-3.493-2.9-2.1,0-3.848,1.85-3.848,4.565,0,2.559,1.731,4.565,4.049,4.565A3.991,3.991,0,0,0,50,23.046l-1.391-1.038A2.291,2.291,0,0,1,46.6,23.271a2.07,2.07,0,0,1-1.978-1.383l5.455-2.525Zm-43.461-1.5v1.937H10.57a4.28,4.28,0,0,1-.943,2.438,4.033,4.033,0,0,1-3.2,1.418c-2.55,0-4.543-2.3-4.543-5.153s1.993-5.153,4.543-5.153A4.183,4.183,0,0,1,9.55,14.211l1.221-1.366a5.73,5.73,0,0,0-4.342-1.954C2.936,10.891,0,14.073,0,17.98s2.936,7.089,6.429,7.089a5.5,5.5,0,0,0,4.42-1.988,6.866,6.866,0,0,0,1.5-4.53,7.009,7.009,0,0,0-.093-1.21Zm10.627,5.931a2.529,2.529,0,0,1-2.3-2.767,2.519,2.519,0,0,1,2.3-2.767,2.519,2.519,0,0,1,2.3,2.767A2.529,2.529,0,0,1,17.056,23.271Zm0-7.331a4.276,4.276,0,0,0-4.1,4.565,4.286,4.286,0,0,0,4.1,4.565,4.286,4.286,0,0,0,4.1-4.565A4.276,4.276,0,0,0,17.056,15.94Zm8.934,7.331a2.53,2.53,0,0,1-2.3-2.767,2.519,2.519,0,0,1,2.3-2.767,2.519,2.519,0,0,1,2.3,2.767,2.529,2.529,0,0,1-2.3,2.767Zm0-7.331a4.276,4.276,0,0,0-4.1,4.565,4.286,4.286,0,0,0,4.1,4.565,4.286,4.286,0,0,0,4.1-4.565,4.276,4.276,0,0,0-4.1-4.565Z" transform="translate(39.369 7.406)"/>
    <path id="Vector-14" data-name="Vector" d="M.514.348A2.216,2.216,0,0,0,0,1.935V25.358a2.315,2.315,0,0,0,.444,1.508l.071.076h0a1.16,1.16,0,0,0,.848.349,2.04,2.04,0,0,0,1.075-.36L16.361,18.08l4.783-3.041a1.98,1.98,0,0,0,1.005-1.392v0a1.979,1.979,0,0,0-1.005-1.392l-4.783-3.04L2.437.361A2.044,2.044,0,0,0,1.361,0,1.161,1.161,0,0,0,.514.348Z" transform="translate(9.566 7.821)" fill="#00c1ff"/>
    <path id="Vector-15" data-name="Vector" d="M.515-14.9l-.071-.076A2.314,2.314,0,0,1,0-16.482V-39.9a2.216,2.216,0,0,1,.514-1.586L12.4-28.194Z" transform="translate(9.566 49.66)" fill="url(#linear-gradient)"/>
    <path id="Vector-16" data-name="Vector" d="M3.962-4.967,0-9.4l3.962-4.433,4.783,3.04A1.979,1.979,0,0,1,9.75-9.4v0A1.98,1.98,0,0,1,8.745-8.008L3.962-4.967" transform="translate(21.965 30.868)" fill="url(#linear-gradient-2)"/>
    <path id="Vector-17" data-name="Vector" d="M.848-7.644A1.16,1.16,0,0,1,0-7.993H0l11.884-13.3,3.962,4.434L1.922-8A2.04,2.04,0,0,1,.848-7.644Z" transform="translate(10.081 42.756)" fill="url(#linear-gradient-3)"/>
    <path id="Vector-18" data-name="Vector" d="M11.885-7.644,0-20.941a1.162,1.162,0,0,1,.847-.348,2.044,2.044,0,0,1,1.077.361l13.923,8.852L11.885-7.644" transform="translate(10.08 29.111)" fill="url(#linear-gradient-4)"/>
    <path id="Vector-19" data-name="Vector" d="M.919-5.248A1.163,1.163,0,0,1,.071-5.6h0l0,0L.006-5.668,0-5.675l.071-.08a1.16,1.16,0,0,0,.848.349,2.04,2.04,0,0,0,1.075-.36l13.924-8.852.089.1-.09.057L1.993-5.609a2.126,2.126,0,0,1-.987.358l-.088,0" transform="translate(10.01 40.518)" fill="url(#linear-gradient-5)"/>
    <path id="Vector-20" data-name="Vector" d="M.444-.932A2.314,2.314,0,0,1,0-2.44V-2.6A2.315,2.315,0,0,0,.444-1.089l.071.076Z" transform="translate(9.566 35.775)" fill="url(#linear-gradient-6)"/>
    <path id="Vector-21" data-name="Vector" d="M.089-2.539,0-2.639,4.783-5.68A1.98,1.98,0,0,0,5.788-7.071a1.463,1.463,0,0,1-.111.554,2.2,2.2,0,0,1-.894.995L.089-2.539" transform="translate(25.927 28.539)" fill="url(#linear-gradient-7)"/>
    <path id="Vector-22" data-name="Vector" d="M5.788-2.539A1.979,1.979,0,0,0,4.783-3.931L0-6.972l.089-.1h0L4.783-4.088A1.892,1.892,0,0,1,5.788-2.539Z" transform="translate(25.927 24.006)" fill="url(#linear-gradient-8)"/>
    <path id="Vector-23" data-name="Vector" d="M0-.933V-1.1c0-.059,0-.117,0-.173v0a.008.008,0,0,1,0,0v-.006A2.188,2.188,0,0,1,.444-2.6l.07.079A2.216,2.216,0,0,0,0-.933Z" transform="translate(9.566 10.688)" fill="url(#linear-gradient-9)"/>
    <path id="Vector-24" data-name="Vector" d="M15.917-5.249,1.993-14.1a2.044,2.044,0,0,0-1.077-.361,1.161,1.161,0,0,0-.847.348L0-14.192q.033-.039.068-.075l0,0a1.161,1.161,0,0,1,.839-.349H.917a2.043,2.043,0,0,1,1.077.361L16.006-5.349h0Z" transform="translate(10.01 22.282)" fill="url(#linear-gradient-10)"/>
  </g>
</svg>
