<svg xmlns="http://www.w3.org/2000/svg" width="25.158" height="25.157" viewBox="0 0 25.158 25.157">
  <path id="Vector" d="M12.575,6.125a6.454,6.454,0,1,0,6.454,6.454A6.445,6.445,0,0,0,12.575,6.125Zm0,10.649a4.195,4.195,0,1,1,4.195-4.195A4.2,4.2,0,0,1,12.575,16.773ZM19.294,4.356a1.505,1.505,0,1,0,.577.114,1.505,1.505,0,0,0-.577-.114Zm5.862,8.222c0-1.737.016-3.458-.082-5.192a7.48,7.48,0,0,0-2.03-5.274A7.472,7.472,0,0,0,17.771.083C16.034-.015,14.312,0,12.579,0S9.12-.015,7.386.083a7.48,7.48,0,0,0-5.274,2.03A7.472,7.472,0,0,0,.083,7.386C-.015,9.123,0,10.845,0,12.579s-.016,3.458.082,5.192a7.48,7.48,0,0,0,2.03,5.274,7.472,7.472,0,0,0,5.274,2.03c1.737.1,3.458.082,5.192.082s3.458.016,5.192-.082a7.48,7.48,0,0,0,5.274-2.03,7.472,7.472,0,0,0,2.03-5.274c.1-1.734.082-3.455.082-5.192ZM22.387,20A4.293,4.293,0,0,1,20,22.39c-1.655.658-5.585.51-7.42.51s-5.768.148-7.423-.507A4.293,4.293,0,0,1,2.761,20c-.655-1.658-.507-5.589-.507-7.423s-.148-5.768.507-7.423a4,4,0,0,1,.95-1.441,4.068,4.068,0,0,1,1.441-.95c1.655-.655,5.589-.507,7.423-.507s5.768-.148,7.423.507a4,4,0,0,1,1.441.95,4.026,4.026,0,0,1,.95,1.441c.655,1.655.507,5.589.507,7.423S23.045,18.343,22.387,20Z" fill="#fafafa"/>
</svg>
