<svg xmlns="http://www.w3.org/2000/svg" width="28.512" height="25.157" viewBox="0 0 28.512 25.157">
  <path id="Vector" d="M28.512,2.988a11,11,0,0,1-3.365.982,6.264,6.264,0,0,0,2.57-3.5,11,11,0,0,1-3.707,1.533A5.855,5.855,0,0,0,22.067.52,5.435,5.435,0,0,0,19.74,0,6.109,6.109,0,0,0,13.9,6.349,7.893,7.893,0,0,0,14.042,7.8,16.211,16.211,0,0,1,1.994,1.161a6.722,6.722,0,0,0-.795,3.2A6.509,6.509,0,0,0,3.8,9.653a5.545,5.545,0,0,1-2.642-.808v.078a6.24,6.24,0,0,0,4.684,6.23,5.727,5.727,0,0,1-1.538.216,7.17,7.17,0,0,1-1.1-.1,5.936,5.936,0,0,0,5.462,4.4,11.135,11.135,0,0,1-7.254,2.713A11.008,11.008,0,0,1,0,22.31a15.607,15.607,0,0,0,8.974,2.847C19.719,25.157,25.6,15.489,25.6,7.1c0-.275,0-.551-.017-.826A13.231,13.231,0,0,0,28.512,2.988Z" fill="#fafafa"/>
</svg>
